<svg xmlns="http://www.w3.org/2000/svg" xmlns:xlink="http://www.w3.org/1999/xlink" width="214" height="213" viewBox="0 0 214 213">
  <defs>
    <clipPath id="clip-path">
      <rect id="Rectangle_493" data-name="Rectangle 493" width="214" height="213" transform="translate(-1697 7327)" fill="#fff" stroke="#707070" stroke-width="1"/>
    </clipPath>
    <clipPath id="clip-path-2">
      <rect id="Rectangle_106" data-name="Rectangle 106" width="204.846" height="204.42" fill="none"/>
    </clipPath>
  </defs>
  <g id="Mask_Group_23" data-name="Mask Group 23" transform="translate(1697 -7327)" clip-path="url(#clip-path)">
    <g id="Group_258" data-name="Group 258" transform="translate(-1694 7327)">
      <g id="Group_76" data-name="Group 76" clip-path="url(#clip-path-2)">
        <path id="Path_596" data-name="Path 596" d="M119.75,31.577c-.11,10.505-3.77,20.154-6.489,29.989-.848,3.07-1.518,6.274-2.931,9.086-2.554,5.085-1.3,8.779,2.732,12.478,10.38,9.529,20.464,19.379,30.85,28.9,1.2,1.1,3.583,1.383,5.374,1.281,10.207-.58,20.394-1.748,30.6-1.957a35.685,35.685,0,0,1,13.189,2.668c8.868,3.425,12.285,9.495,11.707,19.088-.566,9.382-5.768,15.9-14.169,18.726-10.893,3.661-20.1-.114-28.933-5.881-5.569-3.638-11.086-7.375-16.407-11.361-2.545-1.906-4.811-2.675-8.006-1.79q-25.161,6.968-50.426,13.563c-3.007.789-4.625,2.584-5.984,5.211-8.5,16.438-18.843,31.528-33.451,43.236-9.521,7.63-19.809,12.446-32.45,7.75-16.693-6.2-20.195-23.31-6.535-34.75a111.538,111.538,0,0,1,20.033-12.938c12.728-6.646,25.858-12.521,38.714-18.93a9.375,9.375,0,0,0,4.388-4.584Q80.21,107.387,88.277,83.2c.462-1.378-.274-3.617-1.2-4.923-7.047-9.891-13.725-19.948-17.01-31.83a50.479,50.479,0,0,1,.917-29.461C75.284,3.736,86.437-2,100.723.619c9.63,1.766,14.874,7.748,16.929,16.808,1.052,4.637,1.421,9.428,2.1,14.15M95.727,60.489c1.826-6.2,4.01-11.585,4.9-17.175a103.219,103.219,0,0,0,1.081-19.329c-.175-5.578-2.517-7.09-8.107-6.8-3.967.2-5.965,2.2-7.161,7.238C83.258,37.794,88,49.148,95.727,60.489m-3.647,65.8,29.457-7.737c-6.215-6.668-12.985-13.93-19.8-21.243-3.141,9.431-6.315,18.957-9.653,28.98M55.011,161.65l-.708-1.08c-10.359,5.63-20.744,11.209-31.051,16.93a17.022,17.022,0,0,0-4.184,3.658c-2.553,2.864-2.191,3.951,1.465,5.349a11.824,11.824,0,0,0,11.047-1.236c9.688-6.045,16.859-14.538,23.431-23.621m112.122-33.961q-.2.631-.407,1.263c2.295,1.481,4.441,3.313,6.922,4.352a42.52,42.52,0,0,0,9.7,2.742c2.268.357,4.59-1.019,4.171-3.555a5.5,5.5,0,0,0-3.766-3.5c-5.5-.761-11.075-.917-16.623-1.3" fill="#fff"/>
      </g>
    </g>
  </g>
</svg>
