<svg xmlns="http://www.w3.org/2000/svg" width="13.827" height="25.271" viewBox="0 0 13.827 25.271">
  <g id="MCUlKQ.tif" transform="translate(13.827) rotate(90)">
    <g id="Group_2" data-name="Group 2" transform="translate(0 0)">
      <path id="Path_2" data-name="Path 2" d="M1.436,13.827a6.8,6.8,0,0,0,.763-.578Q7.272,8.18,12.33,3.1a2.17,2.17,0,0,1,.4-.376,1.7,1.7,0,0,0,.218.373q5.057,5.084,10.128,10.156a6.8,6.8,0,0,0,.763.578h.574c.546-.244.95-.624.838-1.26a1.784,1.784,0,0,0-.49-.876Q19.253,6.131,13.714.6a7.238,7.238,0,0,0-.788-.6h-.574a6.829,6.829,0,0,0-.762.578Q6.075,6.091.577,11.622A6.853,6.853,0,0,0,0,12.386v.576a1.46,1.46,0,0,0,.862.864Z" fill="#fff"/>
    </g>
  </g>
</svg>
