<svg xmlns="http://www.w3.org/2000/svg" width="13.827" height="25.272" viewBox="0 0 13.827 25.272">
  <g id="MCUlKQ.tif" transform="translate(710.827 -39.084) rotate(90)">
    <g id="Group_2" data-name="Group 2" transform="translate(39.084 697)">
      <path id="Path_2" data-name="Path 2" d="M40.52,697a6.8,6.8,0,0,1,.763.578q5.073,5.069,10.131,10.153a2.17,2.17,0,0,0,.4.376,1.7,1.7,0,0,1,.218-.373q5.057-5.084,10.128-10.156a6.8,6.8,0,0,1,.763-.578H63.5c.546.244.95.624.838,1.26a1.784,1.784,0,0,1-.49.876Q58.338,704.7,52.8,710.225a7.238,7.238,0,0,1-.788.6h-.574a6.829,6.829,0,0,1-.762-.578q-5.515-5.513-11.012-11.043a6.853,6.853,0,0,1-.577-.765v-.576a1.46,1.46,0,0,1,.862-.864Z" transform="translate(-39.084 -697)" fill="#fff"/>
    </g>
  </g>
</svg>
