<svg xmlns="http://www.w3.org/2000/svg" width="29" height="27" viewBox="0 0 29 27">
  <g id="Group_239" data-name="Group 239" transform="translate(-113 -1078)">
    <g id="Group_93" data-name="Group 93" transform="translate(113 1078)">
      <g id="Rectangle_9" data-name="Rectangle 9" fill="none" stroke="#fff" stroke-width="1" opacity="0.504">
        <rect width="29" height="27" stroke="none"/>
        <rect x="0.5" y="0.5" width="28" height="26" fill="none"/>
      </g>
      <g id="MCUlKQ.tif" transform="translate(10.782 20.589) rotate(-90)" opacity="0.496">
        <g id="Group_2" data-name="Group 2" transform="translate(0 0)">
          <path id="Path_2" data-name="Path 2" d="M.772,7.435a3.663,3.663,0,0,0,.41-.311Q3.91,4.4,6.63,1.665a1.17,1.17,0,0,1,.217-.2.911.911,0,0,0,.117.2Q9.683,4.4,12.41,7.124a3.67,3.67,0,0,0,.41.311h.309c.294-.131.511-.335.45-.678a.958.958,0,0,0-.263-.471Q10.353,3.3,7.374.324A3.884,3.884,0,0,0,6.951,0H6.642a3.677,3.677,0,0,0-.41.311Q3.267,3.275.311,6.249A3.7,3.7,0,0,0,0,6.661v.31a.786.786,0,0,0,.463.465Z" fill="#fff"/>
        </g>
      </g>
    </g>
  </g>
</svg>
