<svg xmlns="http://www.w3.org/2000/svg" xmlns:xlink="http://www.w3.org/1999/xlink" width="311" height="347" viewBox="0 0 311 347">
  <defs>
    <clipPath id="clip-path">
      <rect id="wu-yi-CHLehnxQSFQ-unsplash" width="311" height="346" transform="translate(114 1093)" fill="#d2d2d2"/>
    </clipPath>
    <clipPath id="clip-path-2">
      <rect id="Rectangle_116" data-name="Rectangle 116" width="270.741" height="270.178" fill="none"/>
    </clipPath>
  </defs>
  <g id="Group_238" data-name="Group 238" transform="translate(-114 -1093)">
    <rect id="wu-yi-CHLehnxQSFQ-unsplash-2" data-name="wu-yi-CHLehnxQSFQ-unsplash" width="311" height="347" transform="translate(114 1093)" fill="#d2d2d2"/>
    <g id="Mask_Group_13" data-name="Mask Group 13" opacity="0.7" clip-path="url(#clip-path)">
      <g id="Group_83" data-name="Group 83" transform="translate(207 -205)" opacity="0.1">
        <g id="Group_82" data-name="Group 82" transform="translate(-3.318 1297)">
          <g id="Group_81" data-name="Group 81" clip-path="url(#clip-path-2)">
            <path id="Path_597" data-name="Path 597" d="M158.271,41.735c-.145,13.884-4.983,26.637-8.576,39.636-1.121,4.058-2.006,8.292-3.874,12.009-3.376,6.721-1.714,11.6,3.611,16.492,13.719,12.594,27.047,25.613,40.774,38.2,1.583,1.453,4.736,1.828,7.1,1.693,13.49-.767,26.954-2.31,40.447-2.587a47.164,47.164,0,0,1,17.432,3.526c11.721,4.527,16.237,12.549,15.473,25.228-.748,12.4-7.623,21.017-18.727,24.75-14.4,4.839-26.571-.151-38.24-7.773-7.36-4.808-14.652-9.747-21.685-15.016-3.364-2.519-6.359-3.535-10.581-2.366q-33.255,9.209-66.647,17.926c-3.974,1.043-6.113,3.415-7.909,6.887-11.24,21.726-24.9,41.67-44.211,57.144-12.584,10.084-26.181,16.45-42.889,10.243-22.063-8.2-26.691-30.808-8.637-45.928a147.417,147.417,0,0,1,26.477-17.1c16.822-8.784,34.176-16.549,51.167-25.019a12.391,12.391,0,0,0,5.8-6.059q11.437-31.687,22.1-63.648c.611-1.821-.362-4.781-1.591-6.507C105.773,90.392,96.946,77.1,92.6,61.4a66.718,66.718,0,0,1,1.212-38.938C99.5,4.938,114.242-2.643,133.123.818c12.728,2.334,19.659,10.24,22.375,22.215,1.39,6.129,1.878,12.461,2.773,18.7M126.52,79.947c2.413-8.2,5.3-15.312,6.474-22.7A136.423,136.423,0,0,0,134.423,31.7c-.231-7.372-3.327-9.371-10.715-8.993-5.243.268-7.884,2.914-9.465,9.566-4.2,17.677,2.06,32.684,12.277,47.673m-4.82,86.964,38.933-10.226c-8.214-8.813-17.162-18.411-26.175-28.076-4.151,12.465-8.346,25.055-12.758,38.3M72.707,213.649l-.936-1.427C58.08,219.66,44.354,227.037,30.732,234.6a22.5,22.5,0,0,0-5.53,4.835c-3.374,3.785-2.9,5.222,1.936,7.07,5.16,1.973,9.969,1.256,14.6-1.634,12.8-7.99,22.282-19.215,30.968-31.219M220.9,168.764q-.27.835-.538,1.669c3.033,1.957,5.87,4.379,9.149,5.752a56.2,56.2,0,0,0,12.824,3.624c3,.472,6.067-1.347,5.513-4.7-.3-1.832-3.057-4.363-4.977-4.629-7.263-1.006-14.638-1.212-21.97-1.718" transform="translate(0 0)"/>
          </g>
        </g>
      </g>
    </g>
  </g>
</svg>
