<svg xmlns="http://www.w3.org/2000/svg" width="5.728" height="10.47" viewBox="0 0 5.728 10.47">
  <g id="MCUlKQ.tif" transform="translate(-697 49.554) rotate(-90)">
    <g id="Group_2" data-name="Group 2" transform="translate(39.084 697)">
      <path id="Path_2" data-name="Path 2" d="M39.679,697a2.814,2.814,0,0,1,.316.24q2.1,2.1,4.2,4.206a.9.9,0,0,0,.167.156.7.7,0,0,1,.09-.155q2.1-2.106,4.2-4.207a2.822,2.822,0,0,1,.316-.24H49.2c.226.1.393.258.347.522a.739.739,0,0,1-.2.363q-2.283,2.3-4.578,4.594a3,3,0,0,1-.326.249H44.2a2.837,2.837,0,0,1-.316-.24q-2.285-2.284-4.562-4.575a2.833,2.833,0,0,1-.239-.317v-.239a.605.605,0,0,1,.357-.358Z" transform="translate(-39.084 -697)"/>
    </g>
  </g>
</svg>
