<svg xmlns="http://www.w3.org/2000/svg" width="7.435" height="13.589" viewBox="0 0 7.435 13.589">
  <g id="MCUlKQ.tif" transform="translate(0 13.589) rotate(-90)">
    <g id="Group_2" data-name="Group 2">
      <path id="Path_2" data-name="Path 2" d="M.772,0a3.663,3.663,0,0,1,.41.311Q3.91,3.036,6.63,5.77a1.17,1.17,0,0,0,.217.2.911.911,0,0,1,.117-.2Q9.683,3.038,12.41.311A3.67,3.67,0,0,1,12.82,0h.309c.294.131.511.335.45.678a.958.958,0,0,1-.263.471q-2.963,2.99-5.942,5.963a3.884,3.884,0,0,1-.424.324H6.642a3.677,3.677,0,0,1-.41-.311Q3.267,4.16.311,1.186A3.7,3.7,0,0,1,0,.774V.465A.786.786,0,0,1,.463,0Z" fill="#fff"/>
    </g>
  </g>
</svg>
