<svg id="Group_52" data-name="Group 52" xmlns="http://www.w3.org/2000/svg" xmlns:xlink="http://www.w3.org/1999/xlink" width="13.459" height="13.447" viewBox="0 0 13.459 13.447">
  <defs>
    <clipPath id="clip-path">
      <rect id="Rectangle_58" data-name="Rectangle 58" width="13.459" height="13.447" fill="#fff"/>
    </clipPath>
  </defs>
  <g id="Group_52-2" data-name="Group 52" clip-path="url(#clip-path)">
    <path id="Path_490" data-name="Path 490" d="M7.911,0c.242.033.486.054.725.1a6.551,6.551,0,0,1,5.252,4.579A6.72,6.72,0,0,1,1.1,8.813,7.269,7.269,0,0,1,.8,7.391a.4.4,0,0,1,.53-.452,1.622,1.622,0,0,0,1.784-.776,1.566,1.566,0,0,0,.212-.957.4.4,0,0,1,.365-.483A2.139,2.139,0,0,0,5.364,2.164a.4.4,0,0,1,.382-.538A1.621,1.621,0,0,0,7.174.384.5.5,0,0,1,7.491,0ZM1.659,7.812a.423.423,0,0,0,.006.059,5.814,5.814,0,0,0,2.043,3.424,5.933,5.933,0,1,0,7.428-9.252A5.773,5.773,0,0,0,7.982.81.121.121,0,0,0,7.836.9,2.386,2.386,0,0,1,6.283,2.318c-.028.009-.054.021-.078.031,0,.063,0,.115,0,.168A2.948,2.948,0,0,1,4.214,5.4c-.1.034-.1.093-.106.167a2.357,2.357,0,0,1-1.6,2.058,5.872,5.872,0,0,1-.853.189" transform="translate(-0.767)" fill="#fff"/>
    <path id="Path_491" data-name="Path 491" d="M30.411,0a3.473,3.473,0,0,1,.421.137A1.364,1.364,0,0,1,30.16,2.73a1.366,1.366,0,0,1-.177-2.7A.882.882,0,0,0,30.069,0Zm-.169,1.944a.578.578,0,1,0,0-1.155.578.578,0,0,0,0,1.155" transform="translate(-27.863)" fill="#fff"/>
    <path id="Path_492" data-name="Path 492" d="M0,110.453c.121-.253.278-.35.483-.3a.393.393,0,0,1,.3.38.4.4,0,0,1-.3.384.4.4,0,0,1-.441-.2c-.014-.026-.029-.051-.044-.077v-.184" transform="translate(0 -106.277)" fill="#fff"/>
    <path id="Path_493" data-name="Path 493" d="M184.844,56.136a1.442,1.442,0,1,1,1.447,1.439,1.445,1.445,0,0,1-1.447-1.439m.788-.005a.654.654,0,0,0,.645.656.655.655,0,1,0,0-1.31.654.654,0,0,0-.647.654" transform="translate(-178.358 -52.77)" fill="#fff"/>
    <path id="Path_494" data-name="Path 494" d="M93.371,204.071a1.365,1.365,0,0,1,2.73-.005,1.365,1.365,0,1,1-2.73.005m1.368-.578a.569.569,0,0,0-.58.567.578.578,0,0,0,.577.588.586.586,0,0,0,.577-.578.577.577,0,0,0-.574-.577" transform="translate(-90.095 -195.593)" fill="#fff"/>
    <path id="Path_495" data-name="Path 495" d="M207.953,234.894a1.318,1.318,0,1,1,1.311,1.341,1.321,1.321,0,0,1-1.311-1.341m1.849.015a.531.531,0,1,0-.529.538.531.531,0,0,0,.529-.538" transform="translate(-200.656 -225.393)" fill="#fff"/>
    <path id="Path_496" data-name="Path 496" d="M261.841,138.077a1.321,1.321,0,1,1-1.3,1.35,1.327,1.327,0,0,1,1.3-1.35m.023,1.853a.533.533,0,1,0-.538-.528.537.537,0,0,0,.538.528" transform="translate(-251.396 -133.232)" fill="#fff"/>
    <path id="Path_497" data-name="Path 497" d="M143.764,150.045a.393.393,0,1,1-.786-.007.393.393,0,0,1,.786.007" transform="translate(-137.961 -144.4)" fill="#fff"/>
    <path id="Path_498" data-name="Path 498" d="M215.158,158.607a.394.394,0,0,1,.392.392.4.4,0,0,1-.4.392.39.39,0,0,1-.389-.4.386.386,0,0,1,.391-.389" transform="translate(-207.23 -153.042)" fill="#fff"/>
    <path id="Path_499" data-name="Path 499" d="M45.5,233.986a.39.39,0,0,1,.4-.387.393.393,0,1,1-.013.786.387.387,0,0,1-.383-.4" transform="translate(-43.905 -225.402)" fill="#fff"/>
    <path id="Path_500" data-name="Path 500" d="M165.835,308.318a.392.392,0,0,1,.392.392.4.4,0,0,1-.4.391.4.4,0,0,1-.391-.4.39.39,0,0,1,.394-.389" transform="translate(-159.636 -297.499)" fill="#fff"/>
    <path id="Path_501" data-name="Path 501" d="M310.6,233.99a.392.392,0,0,1,.4-.388.393.393,0,1,1-.011.786.388.388,0,0,1-.385-.4" transform="translate(-299.701 -225.405)" fill="#fff"/>
    <path id="Path_502" data-name="Path 502" d="M287.822,91.818a.387.387,0,0,1-.387.394.393.393,0,0,1-.394-.389.4.4,0,0,1,.39-.4.39.39,0,0,1,.391.392" transform="translate(-276.969 -88.218)" fill="#fff"/>
    <path id="Path_503" data-name="Path 503" d="M191.97,201.742a.385.385,0,0,1-.393-.387.391.391,0,0,1,.389-.394.4.4,0,0,1,.4.39.39.39,0,0,1-.392.391" transform="translate(-184.855 -193.909)" fill="#fff"/>
  </g>
</svg>
