<svg id="Group_96" data-name="Group 96" xmlns="http://www.w3.org/2000/svg" xmlns:xlink="http://www.w3.org/1999/xlink" width="10.335" height="10.479" viewBox="0 0 10.335 10.479">
  <defs>
    <clipPath id="clip-path">
      <rect id="Rectangle_124" data-name="Rectangle 124" width="10.335" height="10.479" fill="#fff"/>
    </clipPath>
  </defs>
  <g id="Group_95" data-name="Group 95" clip-path="url(#clip-path)">
    <path id="Path_601" data-name="Path 601" d="M0,3.777c0-.867,0-1.735,0-2.6A1.128,1.128,0,0,1,.911.024,1.4,1.4,0,0,1,1.193,0Q3.778,0,6.362,0A1.134,1.134,0,0,1,7.556,1.2q0,2.579,0,5.157a1.141,1.141,0,0,1-1.194,1.2q-2.585,0-5.169,0A1.135,1.135,0,0,1,0,6.368C0,5.5,0,4.641,0,3.777m.757-.006q0,1.283,0,2.566c0,.323.138.462.459.462H6.338c.32,0,.461-.141.461-.462q0-2.56,0-5.121c0-.323-.137-.459-.461-.459H1.217c-.323,0-.459.136-.459.459q0,1.277,0,2.554" transform="translate(0 0)" fill="#fff"/>
    <path id="Path_602" data-name="Path 602" d="M95.464,96.214c0,.867,0,1.735,0,2.6a1.127,1.127,0,0,1-.908,1.151,1.448,1.448,0,0,1-.294.023q-2.573,0-5.146,0a1.139,1.139,0,0,1-1.207-1.209c0-.311,0-.623,0-.934a.38.38,0,1,1,.757,0c0,.319,0,.639,0,.958a.382.382,0,0,0,.423.426h5.193a.379.379,0,0,0,.424-.423q0-2.6,0-5.193a.383.383,0,0,0-.424-.426c-.284,0-.568,0-.852,0a.378.378,0,1,1-.011-.755,10.49,10.49,0,0,1,1.086.023,1.078,1.078,0,0,1,.95,1.045c.015.859.006,1.719.008,2.579q0,.065,0,.13" transform="translate(-85.13 -89.513)" fill="#fff"/>
  </g>
</svg>
