<svg id="Group_228" data-name="Group 228" xmlns="http://www.w3.org/2000/svg" xmlns:xlink="http://www.w3.org/1999/xlink" width="17.006" height="17" viewBox="0 0 17.006 17">
  <defs>
    <clipPath id="clip-path">
      <rect id="Rectangle_481" data-name="Rectangle 481" width="17.006" height="17" fill="none"/>
    </clipPath>
  </defs>
  <g id="Group_227" data-name="Group 227" clip-path="url(#clip-path)">
    <path id="Path_610" data-name="Path 610" d="M6.314,0c.088.028.176.053.263.084A1.759,1.759,0,0,1,7.732,1.291c.029.095.065.124.158.122.266,0,.531,0,.8,0,.431,0,.53.1.532.523,0,.06,0,.119,0,.191h1.03a1.773,1.773,0,0,1,1.8,1.791c.006.681,0,1.361,0,2.042,0,.26-.145.42-.368.417a.365.365,0,0,1-.354-.414c0-.675,0-1.35,0-2.025a1.039,1.039,0,0,0-1.045-1.093c-.347-.013-.695,0-1.057,0-.008.16-.009.307-.022.454a1.047,1.047,0,0,1-1.047.955q-2.133,0-4.266,0a1.065,1.065,0,0,1-1.06-1.037c0-.116,0-.231,0-.345-.024-.012-.038-.024-.052-.024-.365,0-.731-.013-1.095.007A1.022,1.022,0,0,0,.727,3.8c-.005.066-.008.133-.008.2q0,4.5,0,9a1.047,1.047,0,0,0,.692,1.092,1.6,1.6,0,0,0,.5.069q2.706.007,5.411,0c.194,0,.367.028.448.236a.352.352,0,0,1-.29.476,1.31,1.31,0,0,1-.133,0H1.824A1.762,1.762,0,0,1,.006,13.053c0-3.032.011-6.064-.006-9.1A1.8,1.8,0,0,1,1.846,2.123c.32.014.64,0,.985,0,0-.095,0-.181,0-.267,0-.313.129-.443.444-.446.332,0,.663,0,1,0,.017-.042.034-.077.045-.113A1.751,1.751,0,0,1,5.693.03.242.242,0,0,0,5.749,0ZM8.5,2.125h-.97c-.319,0-.436-.113-.453-.434a1.059,1.059,0,0,0-2.092-.13c-.1.563-.1.563-.67.563H3.554c0,.323,0,.621,0,.92,0,.394.1.492.486.492H8.007a1.611,1.611,0,0,0,.166-.005A.326.326,0,0,0,8.5,3.215c.013-.358,0-.716,0-1.09" transform="translate(0.001)" fill="#161615"/>
    <path id="Path_611" data-name="Path 611" d="M200.256,168.531c-.021.056-.043.112-.064.168a1.047,1.047,0,0,1-.977.694q-3.211,0-6.422,0a1.047,1.047,0,0,1-1.036-1.037q0-3.916,0-7.833a1.052,1.052,0,0,1,1.044-1.05q2.215-.012,4.431,0a1.644,1.644,0,0,1,1.167.48c.463.452.917.913,1.375,1.371a1.977,1.977,0,0,1,.482.963Zm-7.786-4.107q0,1.9,0,3.8c0,.339.112.455.443.456q3.1,0,6.191,0c.323,0,.439-.117.439-.443q0-2.813,0-5.626a1.165,1.165,0,0,0-.365-.875q-.593-.581-1.174-1.174a1.19,1.19,0,0,0-.9-.373c-1.383.007-2.766,0-4.149,0-.381,0-.482.1-.482.479q0,1.875,0,3.751" transform="translate(-183.251 -152.395)" fill="#161615"/>
    <path id="Path_612" data-name="Path 612" d="M241.816,255.322c.57,0,1.14,0,1.709,0a.362.362,0,0,1,.4.4.37.37,0,0,1-.412.322q-1.245,0-2.489,0c-.31,0-.62,0-.929,0-.26,0-.42-.144-.417-.367a.364.364,0,0,1,.413-.355c.575,0,1.151,0,1.726,0" transform="translate(-229.046 -243.996)" fill="#161615"/>
    <path id="Path_613" data-name="Path 613" d="M241.7,303.227c.57,0,1.14,0,1.709,0a.379.379,0,0,1,.406.272.364.364,0,0,1-.378.449c-.371.005-.741,0-1.112,0q-1.17,0-2.34,0a.379.379,0,0,1-.406-.273.367.367,0,0,1,.394-.449c.575,0,1.151,0,1.726,0" transform="translate(-228.943 -289.776)" fill="#161615"/>
  </g>
</svg>
