<svg xmlns="http://www.w3.org/2000/svg" xmlns:xlink="http://www.w3.org/1999/xlink" width="20.703" height="13.827" viewBox="0 0 20.703 13.827">
  <defs>
    <clipPath id="clip-path">
      <rect id="Rectangle_482" data-name="Rectangle 482" width="20.703" height="13.827" transform="translate(0 0)" fill="none"/>
    </clipPath>
  </defs>
  <g id="Group_230" data-name="Group 230" transform="translate(0 0)">
    <g id="Group_229" data-name="Group 229" transform="translate(0 0)" clip-path="url(#clip-path)">
      <path id="Path_614" data-name="Path 614" d="M20.7,12.982a.423.423,0,0,0-.039.067,1.073,1.073,0,0,1-1.08.777q-1.647,0-3.3,0H1.167A1.068,1.068,0,0,1,0,12.738Q0,6.916,0,1.094A1.065,1.065,0,0,1,1.066.007c.074,0,.148,0,.222,0Q10.325.007,19.361,0A1.228,1.228,0,0,1,20.7.851ZM19.89,1.335c-.074.052-.123.084-.17.119C17.017,3.482,14.3,5.5,11.614,7.546a2.053,2.053,0,0,1-2.527,0C6.4,5.5,3.685,3.481.98,1.453.931,1.416.88,1.382.819,1.34V12.4c.065-.075.11-.123.151-.175L4.3,8.114c.322-.4.641-.8.971-1.19a.4.4,0,0,1,.623.5c-.041.061-.091.117-.137.175l-3.7,4.57c-.222.274-.443.55-.676.84H19.318c-.056-.073-.1-.127-.137-.179L16.028,8.933,14.834,7.456a.387.387,0,0,1-.034-.5.357.357,0,0,1,.443-.148.768.768,0,0,1,.288.238q2.1,2.588,4.2,5.181c.044.054.094.1.161.178ZM1.485.818c.069.055.1.08.131.1q4.039,3.03,8.078,6.059a1.077,1.077,0,0,0,1.361-.035Q15.048,3.953,19.039.959c.05-.037.1-.08.168-.141Z" transform="translate(0 0)" fill="#161615"/>
    </g>
  </g>
</svg>
