<svg id="Group_232" data-name="Group 232" xmlns="http://www.w3.org/2000/svg" xmlns:xlink="http://www.w3.org/1999/xlink" width="13.474" height="18.879" viewBox="0 0 13.474 18.879">
  <defs>
    <clipPath id="clip-path">
      <rect id="Rectangle_483" data-name="Rectangle 483" width="13.474" height="18.879" fill="none"/>
    </clipPath>
  </defs>
  <g id="Group_231" data-name="Group 231" clip-path="url(#clip-path)">
    <path id="Path_615" data-name="Path 615" d="M3.377,6.76H11.39a2,2,0,0,1,2.084,2.074q0,3.1,0,6.206a3.824,3.824,0,0,1-3.308,3.8,3.666,3.666,0,0,1-.5.037q-2.924,0-5.849,0a3.826,3.826,0,0,1-3.767-3.3,4.072,4.072,0,0,1-.038-.544c0-2.055.019-4.11-.01-6.164A2.061,2.061,0,0,1,1.97,6.757a.27.27,0,0,0,.058-.022c0-.25,0-.507,0-.765.011-.672-.023-1.35.048-2.016A4.418,4.418,0,0,1,5.426.17,4.849,4.849,0,0,1,9.71.982,4.393,4.393,0,0,1,11.453,4.53a.666.666,0,0,1-.665.692.673.673,0,0,1-.68-.679,3.127,3.127,0,0,0-2.595-3.1,3.333,3.333,0,0,0-3.7,1.5A2.979,2.979,0,0,0,3.38,4.459c-.014.757,0,1.514,0,2.3M6.738,8.107H2.132a.7.7,0,0,0-.777.78q0,3.049,0,6.1a2.5,2.5,0,0,0,2.56,2.548q2.828,0,5.657,0a2.6,2.6,0,0,0,.583-.062,2.487,2.487,0,0,0,1.972-2.49q0-3.028,0-6.056c0-.56-.26-.816-.827-.816H6.738" transform="translate(0 -0.001)" fill="#161615"/>
    <path id="Path_616" data-name="Path 616" d="M97.406,180.341a1.343,1.343,0,0,1,.8,2.418.316.316,0,0,0-.141.3c.006.659,0,1.318,0,1.977a.673.673,0,1,1-1.345,0c0-.666,0-1.332,0-2a.3.3,0,0,0-.139-.275,1.344,1.344,0,0,1,.818-2.42" transform="translate(-90.657 -170.222)" fill="#161615"/>
  </g>
</svg>
