<svg id="Group_38" data-name="Group 38" xmlns="http://www.w3.org/2000/svg" width="19" height="19" viewBox="0 0 19 19">
  <g id="Rectangle_30" data-name="Rectangle 30" fill="none" stroke="#fff" stroke-width="0.75">
    <rect width="19" height="19" rx="9.5" stroke="none"/>
    <rect x="0.375" y="0.375" width="18.25" height="18.25" rx="9.125" fill="none"/>
  </g>
  <g id="DkVBf0.tif" transform="translate(4.956 4.961)">
    <g id="Group_36" data-name="Group 36" transform="translate(0 0)">
      <path id="Path_479" data-name="Path 479" d="M-597.166,298.594h-1.918l-.264-.018a10.608,10.608,0,0,1-1.192-.1,2.4,2.4,0,0,1-1.842-1.453,3.418,3.418,0,0,1-.267-1.339c-.016-.908-.017-1.817-.015-2.726a5.983,5.983,0,0,1,.118-1.385,2.472,2.472,0,0,1,1.932-1.953,4.7,4.7,0,0,1,1.093-.1q1.393-.017,2.787,0a5.585,5.585,0,0,1,1.032.089,2.414,2.414,0,0,1,1.859,1.519,3.93,3.93,0,0,1,.246,1.353c.005.135.012.271.019.406V295.2c-.005.059-.014.117-.014.176a5.057,5.057,0,0,1-.113,1.136,2.435,2.435,0,0,1-2.023,1.969,9.645,9.645,0,0,1-1.165.094Zm-.956-.7c0-.01,0-.021,0-.031.4,0,.794.009,1.19,0a7.709,7.709,0,0,0,1.044-.073,1.715,1.715,0,0,0,1.392-1.115,3.173,3.173,0,0,0,.188-1.158q.012-1.47,0-2.939a4.238,4.238,0,0,0-.089-.818,1.715,1.715,0,0,0-1.436-1.443,6.746,6.746,0,0,0-1.157-.086c-.757-.012-1.515-.011-2.273,0a7.393,7.393,0,0,0-1.1.074,1.711,1.711,0,0,0-1.392,1.114,3.29,3.29,0,0,0-.189,1.2q-.009,1.407,0,2.815a5.345,5.345,0,0,0,.068.785,1.811,1.811,0,0,0,1.782,1.607C-599.436,297.859-598.779,297.874-598.122,297.9Z" transform="translate(602.665 -289.516)" fill="#fff"/>
      <path id="Path_480" data-name="Path 480" d="M-471.1,423.783a2.218,2.218,0,0,1-2.219-2.225,2.218,2.218,0,0,1,2.22-2.215,2.218,2.218,0,0,1,2.22,2.225A2.219,2.219,0,0,1-471.1,423.783Zm0-.71a1.518,1.518,0,0,0,1.512-1.506,1.518,1.518,0,0,0-1.5-1.514,1.518,1.518,0,0,0-1.516,1.51A1.518,1.518,0,0,0-471.1,423.073Z" transform="translate(475.617 -417.032)" fill="#fff"/>
      <path id="Path_481" data-name="Path 481" d="M-239.769,379.953a.528.528,0,0,1,.536-.531.529.529,0,0,1,.529.538.53.53,0,0,1-.532.527A.528.528,0,0,1-239.769,379.953Z" transform="translate(246.227 -377.822)" fill="#fff"/>
    </g>
  </g>
</svg>
