<svg id="Group_39" data-name="Group 39" xmlns="http://www.w3.org/2000/svg" width="19" height="19" viewBox="0 0 19 19">
  <g id="Rectangle_31" data-name="Rectangle 31" fill="none" stroke="#fff" stroke-width="0.75">
    <rect width="19" height="19" rx="9.5" stroke="none"/>
    <rect x="0.375" y="0.375" width="18.25" height="18.25" rx="9.125" fill="none"/>
  </g>
  <g id="SxquOi.tif" transform="translate(5.692 5.359)">
    <g id="Group_35" data-name="Group 35" transform="translate(0 0)">
      <path id="Path_476" data-name="Path 476" d="M232.6,315.611c0-.034-.007-.068-.007-.1q0-2.35,0-4.7V310.7h1.633v.674l.017.006.08-.092a1.953,1.953,0,0,1,1.075-.672,1.727,1.727,0,0,1,2.005,1.107,2.857,2.857,0,0,1,.172.985c0,.951,0,1.9,0,2.853,0,.016,0,.032,0,.047h-1.633c0-.026,0-.053,0-.079,0-.832,0-1.664,0-2.5a2.762,2.762,0,0,0-.045-.487.77.77,0,0,0-1-.648.9.9,0,0,0-.66.835c-.005.951,0,1.9,0,2.852a.16.16,0,0,0,0,.023Z" transform="translate(-229.962 -308.329)" fill="#fff"/>
      <path id="Path_477" data-name="Path 477" d="M73.2,322.907c0-.032,0-.063,0-.1q0-2.358,0-4.716V318h1.634v.1q0,2.366,0,4.732c0,.026,0,.053,0,.079Z" transform="translate(-73.105 -315.625)" fill="#fff"/>
      <path id="Path_478" data-name="Path 478" d="M67.959,168.689a.882.882,0,0,1,.867.49.837.837,0,0,1-.653,1.195,1.013,1.013,0,0,1-.736-.137.8.8,0,0,1-.354-.839.789.789,0,0,1,.632-.671A1.959,1.959,0,0,1,67.959,168.689Z" transform="translate(-67.07 -168.689)" fill="#fff"/>
    </g>
  </g>
</svg>
