<svg id="Group_37" data-name="Group 37" xmlns="http://www.w3.org/2000/svg" width="19" height="19" viewBox="0 0 19 19">
  <g id="Rectangle_32" data-name="Rectangle 32" fill="none" stroke="#fff" stroke-width="0.75">
    <rect width="19" height="19" rx="9.5" stroke="none"/>
    <rect x="0.375" y="0.375" width="18.25" height="18.25" rx="9.125" fill="none"/>
  </g>
  <path id="youtube-brands" d="M23.974,65.016a1.16,1.16,0,0,0-.816-.822A27.42,27.42,0,0,0,19.55,64a27.42,27.42,0,0,0-3.608.194,1.16,1.16,0,0,0-.816.822,13.064,13.064,0,0,0,0,4.474,1.143,1.143,0,0,0,.816.809,27.419,27.419,0,0,0,3.608.194,27.419,27.419,0,0,0,3.608-.194,1.143,1.143,0,0,0,.816-.809,13.064,13.064,0,0,0,0-4.474Zm-5.368,3.61V65.88l2.413,1.373Z" transform="translate(-9.841 -57.746)" fill="#fff"/>
</svg>
