<svg xmlns="http://www.w3.org/2000/svg" width="14.295" height="14.297" viewBox="0 0 14.295 14.297">
  <g id="f8nOsP.tif" transform="translate(-453.868 -818.65)">
    <g id="Group_9" data-name="Group 9" transform="translate(453.868 818.65)">
      <path id="Path_7" data-name="Path 7" d="M461.517,818.65c.252.037.5.066.755.111a7.01,7.01,0,0,1,3.8,1.992,7.14,7.14,0,0,1-9.4,10.714,7.022,7.022,0,0,1-2.685-4.33c-.047-.232-.064-.469-.1-.7-.006-.045-.018-.09-.028-.135v-1c.009-.045.021-.09.028-.135.033-.239.054-.48.1-.716a7.17,7.17,0,0,1,5.761-5.68c.25-.045.5-.075.755-.112Zm5.974,7.152A6.476,6.476,0,1,0,461,832.273,6.5,6.5,0,0,0,467.491,825.8Z" transform="translate(-453.868 -818.65)" fill="#fff"/>
      <path id="Path_8" data-name="Path 8" d="M564.109,974.582q-1.64,0-3.28,0a.824.824,0,0,1-.855-.581,1.127,1.127,0,0,1-.042-.316q0-2.059,0-4.117a.828.828,0,0,1,.892-.887H567.4a.829.829,0,0,1,.892.887q0,2.059,0,4.117a.834.834,0,0,1-.9.9Q565.749,974.584,564.109,974.582Zm3.5-4.869c-.054.038-.084.057-.112.079l-3.113,2.471a.361.361,0,0,1-.547,0l-2.785-2.212-.438-.347v.183q0,1.884,0,3.767c0,.229.017.247.246.247h6.5c.228,0,.246-.018.246-.248q0-1.884,0-3.767Zm-.67-.341h-5.647c.044.037.067.058.091.077q1.321,1.05,2.641,2.1c.077.062.122.044.188-.009q.9-.723,1.812-1.441Z" transform="translate(-556.963 -964.484)" fill="#fff"/>
    </g>
  </g>
</svg>
