<svg xmlns="http://www.w3.org/2000/svg" xmlns:xlink="http://www.w3.org/1999/xlink" width="310" height="350" viewBox="0 0 310 350">
  <defs>
    <clipPath id="clip-path">
      <rect id="Rectangle_134" data-name="Rectangle 134" width="162.528" height="181.358" fill="#878787"/>
    </clipPath>
  </defs>
  <g id="Group_237" data-name="Group 237" transform="translate(-86 -402)">
    <rect id="wu-yi-CHLehnxQSFQ-unsplash" width="310" height="350" transform="translate(86 402)" fill="#d2d2d2"/>
    <g id="Group_108" data-name="Group 108" transform="translate(159.736 471.558)">
      <g id="Group_107" data-name="Group 107" clip-path="url(#clip-path)">
        <path id="Path_604" data-name="Path 604" d="M73.524,181.358c-3.93-.236-7.864-.422-11.79-.717-15.764-1.186-31.383-3.291-46.384-8.531a114,114,0,0,1-13.473-6.087c-2.579-1.3-2.453-4.167.087-5.551,6.818-3.718,13.633-7.447,20.531-11.013a24,24,0,0,1,6.931-2.524c7.087-1.169,12.828-4.77,18.119-9.326,1.92-1.653,3.837-3.315,5.646-5.086a3.309,3.309,0,0,0,.892-2.11q.114-7.523,0-15.047a3.311,3.311,0,0,0-.872-2.133c-4.782-4.614-8.121-9.916-8.484-16.773a1.987,1.987,0,0,0-.844-1.382c-6.659-3.886-9.987-9.865-10.6-17.365a71.429,71.429,0,0,1,.036-11.248,8.848,8.848,0,0,1,2.055-4.194,2.26,2.26,0,0,0,.4-2.367,59.434,59.434,0,0,1-2.687-18.657c.3-11.483,5.179-20.928,13.384-28.694A44.7,44.7,0,0,1,72.532.3a5.769,5.769,0,0,0,.992-.3h8.131c3.6.813,7.272,1.382,10.776,2.492A36.318,36.318,0,0,1,109.8,14.446a3.08,3.08,0,0,0,1.643,1.125c11.052,1.755,18.188,9.89,20.4,20.971a42.367,42.367,0,0,1-2.986,25.423,3.4,3.4,0,0,0-.021,2.808c1.712,4.656,1.009,9.391.365,14.151a21.194,21.194,0,0,1-10.445,16.169,2.2,2.2,0,0,0-.892,1.526c-.395,6.5-3.413,11.687-8,16.058a4.151,4.151,0,0,0-1.409,3.388c.086,4.779.009,9.561.062,14.34a2.7,2.7,0,0,0,.658,1.854c4.18,3.531,8.354,7.079,12.687,10.418,2.793,2.152,6.189,3.076,9.612,3.791,6.023,1.257,11.348,4.14,16.634,7.135,4.045,2.292,8.142,4.492,12.243,6.681,1.236.659,2.169,1.5,2.186,2.95s-.889,2.316-2.09,3.027c-8.253,4.893-17.276,7.688-26.546,9.782A230.137,230.137,0,0,1,90.1,181.1c-.815.025-1.627.167-2.44.255ZM104.53,38.621a2.62,2.62,0,0,0-.48.331c-7.09,8.141-16.359,12.287-26.742,13.737-5.727.8-11.625.349-17.446.5a35.047,35.047,0,0,0-4.746.348c-3.813.622-5.875,2.8-5.79,6.388.119,5.01.476,10.013.723,15.02.27,5.472.947,10.965.69,16.413C50.42,98.1,52.291,103.613,57,108.5c3.783,3.927,7.009,8.393,10.468,12.633.781.958,1.468,1.994,2.254,2.947a7.089,7.089,0,0,0,5.508,2.762c3.883.062,7.768.035,11.651.048a7.849,7.849,0,0,0,6.152-2.979,26.841,26.841,0,0,0,2.239-2.957,68.33,68.33,0,0,1,10.817-13.021,17.313,17.313,0,0,0,5.772-12.326c.012-.295.069-.589.061-.883a163.936,163.936,0,0,1,.651-19.753c.713-7.607-.426-15.3-2.228-22.8-1.164-4.843-2.762-9.492-5.816-13.549m13.647,22.521a12.555,12.555,0,0,1,2.99-.55c1.559.094,2.12-.711,2.62-1.983a37.508,37.508,0,0,0,2.1-21.011c-1.846-9.945-9.16-15.956-17.053-16.216a4.124,4.124,0,0,1-2.659-1.715,30.534,30.534,0,0,0-9.16-8.456C77.924-.278,51.61,8.172,42.062,28.838c-4.819,10.431-3.05,20.841.087,31.243.087.29.5.483.931.884.076-.646.121-.99.156-1.335.7-6.88,4.084-10.791,10.893-11.974a68.9,68.9,0,0,1,9.331-.495c4.525-.159,9.145.265,13.557-.511,9.808-1.727,18.595-5.58,24.422-14.332,1.134-1.7,2.845-2.063,4.417-.74a25.5,25.5,0,0,1,4.431,4.744c3.129,4.451,4.824,9.553,5.994,14.818.739,3.323,1.275,6.692,1.9,10M54.128,140.169c-2.839,2.194-5.385,4.254-8.029,6.18-3.646,2.657-3.718,2.624-2.577,6.987,1.694,6.481,4.261,12.517,9.384,17.094,2.346,2.1,4.947,3.9,8.214,4.131a299.721,299.721,0,0,0,38.124.2,16.8,16.8,0,0,0,11.749-5.6c5.192-5.458,7.523-12.271,8.8-19.515a2.177,2.177,0,0,0-.864-1.624c-1.584-1.219-3.312-2.25-4.9-3.46-1.8-1.37-3.514-2.855-5.556-4.529,0,1.86.05,3.371-.013,4.878a3.032,3.032,0,0,1-2.742,3.15c-1.953.176-3.254-1.164-3.261-3.468-.02-7.021-.008-14.043-.008-21.064V121.39c-1.958,2.5-3.567,4.648-5.271,6.715-1.678,2.036-3.669,3.821-6.32,4.276a61.225,61.225,0,0,1-18.285.175c-3.306-.429-5.8-2.489-7.831-5.053-1.476-1.864-2.854-3.806-4.589-6.133v2.2c0,7.08.015,14.161-.015,21.241-.009,2.02-1.179,3.243-2.944,3.26a3.02,3.02,0,0,1-3.055-3.2c-.059-1.471-.012-2.946-.012-4.707m98.98,23.135c-9.094-4.808-17.182-10.716-27.458-11.8a46.175,46.175,0,0,1-9.965,21.559,135.59,135.59,0,0,0,37.424-9.755M46.9,173.023a46.388,46.388,0,0,1-9.975-21.483c-10.369,1.08-18.415,7-27.442,11.776A135.4,135.4,0,0,0,46.9,173.023m70.678-85.017.589.15a12.39,12.39,0,0,0,4.37-7.049,98.627,98.627,0,0,0,1.128-12.265c.092-2.375-1.162-2.939-3.33-1.9a2.916,2.916,0,0,0-1.665,2.852c-.144,3.4-.409,6.793-.618,10.189-.164,2.676-.317,5.352-.474,8.028M44.7,88.323a4.145,4.145,0,0,0,.133-.546c-.452-6.463-.847-12.93-1.4-19.385-.153-1.8-1.837-1.721-3.17-1.838-1.388-.121-1.256,1.07-1.331,1.839a35.2,35.2,0,0,0,1.3,13.293A13.61,13.61,0,0,0,44.7,88.323" transform="translate(0)" fill="#878787"/>
      </g>
    </g>
  </g>
</svg>
