<svg xmlns="http://www.w3.org/2000/svg" xmlns:xlink="http://www.w3.org/1999/xlink" width="311" height="348" viewBox="0 0 311 348">
  <defs>
    <clipPath id="clip-path">
      <rect id="Rectangle_133" data-name="Rectangle 133" width="162.885" height="181.359" fill="#878787"/>
    </clipPath>
  </defs>
  <g id="Group_256" data-name="Group 256" transform="translate(-271 -296)">
    <rect id="wu-yi-CHLehnxQSFQ-unsplash" width="311" height="348" transform="translate(271 296)" fill="#d2d2d2"/>
    <g id="Group_106" data-name="Group 106" transform="translate(344.558 365.321)">
      <g id="Group_105" data-name="Group 105" clip-path="url(#clip-path)">
        <path id="Path_603" data-name="Path 603" d="M88.3,181.359H74.488c-1.11-.1-2.218-.261-3.33-.3a233.438,233.438,0,0,1-37.074-3.97c-10.151-1.961-20.108-4.588-29.362-9.367-5.454-2.817-5.76-3.93-3.074-9.522a4.876,4.876,0,0,0,.214-2.286c-.128-2.159-.673-4.349-.449-6.463.553-5.24,3.54-9.109,7.622-12.257a23.512,23.512,0,0,0,3.785-3.426c4.144-4.981,4.722-11.893-.169-16.821a21.113,21.113,0,0,1-3.87-6.078c-4.363-9.5-3.662-24.074,9.154-29.865,4.911-2.219,6.471-6.6,5.737-11.811-.559-3.969-1.24-7.92-1.78-11.891-1.227-9.036-1.962-18.1.215-27.087C25.7,15.381,34.434,5.284,49.5,1.277,51.653.705,53.879.418,56.069,0h8.5A2.315,2.315,0,0,0,65.2.268c6.063.621,11.663,2.307,16.039,7.084C84.531,3.621,88.749,1.81,93.389.828,94.874.514,96.374.274,97.867,0h8.5a12.373,12.373,0,0,0,1.357.325c13.258,1.687,23.136,8.272,29.2,20.277,4.921,9.748,5.382,20.183,4.285,30.763-.607,5.861-1.629,11.678-2.413,17.522-.832,6.193.96,9.632,6.483,12.628.466.253.934.5,1.4.761a17.061,17.061,0,0,1,7.483,8.23c3.791,8.522,1.778,19.961-4.532,26.808a12.4,12.4,0,0,0-2.845,4.783c-1.549,5.5.7,9.9,4.655,13.6,1.03.963,2.267,1.7,3.328,2.636,4.2,3.694,6.919,8.267,6.327,13.944a15.64,15.64,0,0,0,1.119,8.736c1.34,2.885.7,3.982-2.1,5.6-7.273,4.193-15.181,6.715-23.269,8.714a208.244,208.244,0,0,1-37.075,5.341c-3.821.239-7.644.46-11.465.69m66.91-30.074a13.176,13.176,0,0,0-5.3-9.149,32.061,32.061,0,0,1-4.062-3.4c-7.044-7.406-7.567-18.057-1.22-25.006a20.218,20.218,0,0,0,5.258-15.968,12.276,12.276,0,0,0-7.053-10.686,28.518,28.518,0,0,1-2.891-1.708c-4.363-2.877-7.19-6.831-7.081-12.143a134.419,134.419,0,0,1,1.345-14.411c1.031-7.972,2.064-15.931.855-23.971-1.249-8.3-4.388-15.714-10.924-21.233-8.891-7.508-19.284-8.9-30.318-6.6-4.911,1.025-8.968,3.319-9.807,9.038A2.553,2.553,0,0,1,81.1,18.106a2.618,2.618,0,0,1-2.753-2.284c-.662-4.8-3.9-7.291-8.1-8.307a47.4,47.4,0,0,0-11.7-1.382c-14.492.213-25.522,8.718-29.8,22.565-2.538,8.2-2.173,16.547-1.186,24.911.649,5.5,1.531,10.983,2.07,16.5.67,6.854-1.917,12.216-7.929,15.78-1.116.662-2.266,1.265-3.374,1.937a11.037,11.037,0,0,0-5.352,7.386c-1.395,6.877-.024,13.089,4.767,18.43a16.475,16.475,0,0,1,4,15.449A20.692,20.692,0,0,1,12.9,141.874a12.889,12.889,0,0,0-5.692,9.671c4.247-3.149,8.772-3.478,13.441-3.557a56.271,56.271,0,0,0,9.3-1.042,47.162,47.162,0,0,0,24.264-11.928,4.092,4.092,0,0,0,1.539-3.565c-.29-2.93-.491-5.87-.822-8.8a10.132,10.132,0,0,0-2.233-5.088,77.392,77.392,0,0,1-5.049-7.47c-4.512-7.561-6.625-15.675-4.544-24.411C44.5,79.865,43,74.356,42.171,68.622c-.739.235-1.351.432-1.965.625a3.047,3.047,0,0,1-3.876-1.212c-1.135-1.8-.186-3.773,2.226-4.609A68.987,68.987,0,0,0,78.244,29.382c.649-1.225,1.453-2.139,2.964-2.141,1.6,0,2.381,1.008,3.049,2.288a71.347,71.347,0,0,0,19.062,23A63.033,63.033,0,0,0,123.985,63.47c2.023.631,2.947,2.209,2.437,3.866-.549,1.783-2.2,2.5-4.3,1.865-.592-.179-1.189-.344-1.887-.545-.224,1.449-.353,2.74-.631,4a30.91,30.91,0,0,0-.187,13.5c1.75,7.979.131,15.5-3.86,22.494-1.952,3.421-4.334,6.6-6.487,9.9a6.691,6.691,0,0,0-1.156,2.329c-.493,2.9-.774,5.836-1.231,8.743-.447,2.835.757,4.751,2.889,6.523,9.526,7.918,20.636,11.426,32.809,11.864,4.42.159,8.721.393,12.832,3.275M80.911,37.143c-.169.259-.487.748-.8,1.238A75.288,75.288,0,0,1,52.887,63.873c-1.574.87-3.863,1.469-4.462,2.8-.663,1.474.089,3.684.488,5.516a33.413,33.413,0,0,1,.072,14.9A24.616,24.616,0,0,0,51.6,104.718,75.258,75.258,0,0,0,70.63,127.987c8,6.475,13.4,6.4,21.339-.116a77.216,77.216,0,0,0,18.558-22.542,26.15,26.15,0,0,0,2.752-19.314,25.5,25.5,0,0,1-.235-10.886c.442-2.254.672-4.549,1.1-6.8.289-1.513-.209-2.275-1.629-2.956A66.221,66.221,0,0,1,92.648,51.11c-4.136-4.4-7.8-9.246-11.736-13.967M61.818,128.405c0,.945-.038,1.633.007,2.316a10.066,10.066,0,0,1-3.862,9.039c-1.564,1.253-3.028,2.644-4.67,3.779a2.3,2.3,0,0,0-1.116,2.629,67.33,67.33,0,0,0,4.957,17.091c1.933,4.158,4.307,8.015,8.1,10.762a4.756,4.756,0,0,0,2.559.908c8.137.088,16.281-.1,24.409.185,3.647.128,6.036-1.459,8.144-3.981a31.568,31.568,0,0,0,2.709-3.707c4.016-6.545,5.9-13.821,7.224-21.29a2.383,2.383,0,0,0-1.284-2.878,36.631,36.631,0,0,1-2.941-2.26c-3.976-2.9-6.129-6.621-5.385-11.689a5.673,5.673,0,0,0-.086-.974c-.726.677-1.227,1.233-1.813,1.676a95.134,95.134,0,0,1-8.38,6.165c-4.73,2.814-9.943,3.594-15.111,1.427a53.346,53.346,0,0,1-8.649-5.06,50.262,50.262,0,0,1-4.806-4.136m94.272,33.508a8.408,8.408,0,0,0-.33-.959c-2.224-4.417-5.867-6.517-10.754-6.855-4.577-.317-9.135-.92-13.71-1.28a2.738,2.738,0,0,0-2.033.874c-4.2,5.251-5.259,11.52-5.846,18.229a113.139,113.139,0,0,0,32.673-10.009m-117.02,9.92c-.263-2.028-.422-3.832-.741-5.608-.808-4.5-2.113-8.826-5.07-12.442a2.569,2.569,0,0,0-1.835-.9c-4.688.35-9.361.908-14.05,1.24-4.985.353-9.488,3.58-10.512,7.862a111.247,111.247,0,0,0,32.208,9.852m78.226,1.082c.483-7.984,1.877-15.443,6.3-22.054l-7.453-3.088c-1.738,9.447-4.407,18.408-10.4,26.456l11.547-1.314m-72.139-.05,11.529,1.3c-6.04-8.032-8.6-16.921-10.39-26.23L38.9,151c4.444,6.621,5.728,14.063,6.257,21.864" transform="translate(0)" fill="#878787"/>
      </g>
    </g>
  </g>
</svg>
