<svg xmlns="http://www.w3.org/2000/svg" width="13.656" height="13.621" viewBox="0 0 13.656 13.621">
  <g id="RBXpju.tif" transform="translate(-893 -362.128)">
    <g id="Group_6" data-name="Group 6" transform="translate(893 362.128)">
      <path id="Path_3" data-name="Path 3" d="M899.348,362.128h.96c.223.03.448.054.67.092a6.831,6.831,0,0,1,5.571,5.523c.044.239.071.48.107.72v.958c-.02.153-.038.306-.06.459a6.516,6.516,0,0,1-1.262,3.09,6.712,6.712,0,0,1-6.23,2.748,6.326,6.326,0,0,1-3.07-1.109,6.722,6.722,0,0,1-2.927-4.467c-.045-.239-.071-.48-.106-.721v-.958c.02-.158.038-.315.062-.472a6.832,6.832,0,0,1,5.551-5.755C898.856,362.191,899.1,362.164,899.348,362.128Zm6.508,6.812a6.028,6.028,0,1,0-6.025,6.019A6.03,6.03,0,0,0,905.856,368.94Z" transform="translate(-893 -362.128)" fill="#fff"/>
      <path id="Path_4" data-name="Path 4" d="M1015.423,486.762c.128.183.239.363.372.526a4.655,4.655,0,0,0,1.133,1.02c.08.05.139.062.2-.023a1.438,1.438,0,0,1,.138-.144.764.764,0,0,1,.956-.189c.245.112.473.261.706.4s.443.26.662.395a.687.687,0,0,1,.145,1.11c-.318.323-.632.649-.964.956a1.128,1.128,0,0,1-.924.245,4.038,4.038,0,0,1-1.7-.636,7.871,7.871,0,0,1-2.921-3.027,3.8,3.8,0,0,1-.475-1.563,1.05,1.05,0,0,1,.287-.829c.308-.319.617-.639.943-.939a.666.666,0,0,1,1.076.159c.255.435.5.88.715,1.334a.787.787,0,0,1-.189,1.067C1015.538,486.665,1015.489,486.7,1015.423,486.762Zm2.453,1.9c-.113.115-.221.225-.329.336a.61.61,0,0,1-.731.141,2.349,2.349,0,0,1-.331-.168,5.373,5.373,0,0,1-1.271-1.125,3.26,3.26,0,0,1-.554-.9.608.608,0,0,1,.164-.712c.067-.065.141-.123.2-.192a.128.128,0,0,0,.027-.111c-.2-.4-.412-.793-.623-1.194-.247.244-.473.489-.722.708a.48.48,0,0,0-.146.5,3.814,3.814,0,0,0,.431,1.179,7.4,7.4,0,0,0,2.474,2.558,3.462,3.462,0,0,0,1.388.545.565.565,0,0,0,.393-.045c.288-.254.544-.544.815-.825Z" transform="translate(-1009.552 -480.608)" fill="#fff"/>
    </g>
  </g>
</svg>
