<svg id="Group_226" data-name="Group 226" xmlns="http://www.w3.org/2000/svg" xmlns:xlink="http://www.w3.org/1999/xlink" width="17.263" height="14.982" viewBox="0 0 17.263 14.982">
  <defs>
    <clipPath id="clip-path">
      <rect id="Rectangle_480" data-name="Rectangle 480" width="17.263" height="14.982" fill="none"/>
    </clipPath>
  </defs>
  <g id="Group_225" data-name="Group 225" clip-path="url(#clip-path)">
    <path id="Path_605" data-name="Path 605" d="M15,3.009H.76v.178q0,2.71,0,5.42a1.025,1.025,0,0,0,1.131,1.13q2.592,0,5.185,0a.407.407,0,0,1,.377.175.37.37,0,0,1-.235.564.863.863,0,0,1-.175.016c-1.746,0-3.492.006-5.238,0A1.727,1.727,0,0,1,.046,9.079a2.424,2.424,0,0,1-.04-.505Q0,5.749,0,2.925c0-.4-.015-.807.009-1.209A1.736,1.736,0,0,1,1.836,0c.7,0,1.394,0,2.092,0q4.983,0,9.966,0a1.8,1.8,0,0,1,1.353.516,1.734,1.734,0,0,1,.519,1.246c.007,1.269,0,2.538,0,3.807A.385.385,0,1,1,15,5.559q0-1.175,0-2.351v-.2M.748,2.236H14.988a3.962,3.962,0,0,0-.006-.657A.986.986,0,0,0,13.939.756H1.745a.977.977,0,0,0-.954.821,6.293,6.293,0,0,0-.043.658" transform="translate(0 0)" fill="#161615"/>
    <path id="Path_606" data-name="Path 606" d="M200.38,147.891a4.129,4.129,0,1,1-4.14-4.114,4.127,4.127,0,0,1,4.14,4.114m-.754.009a3.375,3.375,0,1,0-3.376,3.367,3.386,3.386,0,0,0,3.376-3.367" transform="translate(-183.117 -137.037)" fill="#161615"/>
    <path id="Path_607" data-name="Path 607" d="M33.942,168.458c-.486,0-.971,0-1.457,0a.376.376,0,1,1-.021-.749q1.483-.008,2.966,0a.362.362,0,0,1,.389.382.375.375,0,0,1-.421.367H33.942" transform="translate(-30.561 -159.843)" fill="#161615"/>
    <path id="Path_608" data-name="Path 608" d="M33.189,127.71c.24,0,.48,0,.72,0a.382.382,0,1,1,0,.762q-.711.006-1.423,0a.383.383,0,1,1,0-.762c.234,0,.468,0,.7,0" transform="translate(-30.567 -121.723)" fill="#161615"/>
    <path id="Path_609" data-name="Path 609" d="M249.562,217.036c.177-.188.334-.36.5-.526.238-.242.477-.483.722-.718a.377.377,0,0,1,.537-.007.373.373,0,0,1,0,.536q-.738.751-1.49,1.488a.361.361,0,0,1-.548,0q-.56-.545-1.106-1.1a.378.378,0,1,1,.537-.531c.279.273.55.554.852.86" transform="translate(-236.418 -205.566)" fill="#161615"/>
  </g>
</svg>
