<svg xmlns="http://www.w3.org/2000/svg" width="12.913" height="14.297" viewBox="0 0 12.913 14.297">
  <g id="lqXEm5.tif" transform="translate(-1514.618 -393.056)">
    <g id="Group_7" data-name="Group 7" transform="translate(1514.618 393.056)">
      <path id="Path_5" data-name="Path 5" d="M1521.2,393.056c.17.169.333.345.511.506a5.434,5.434,0,0,0,1.966,1.062,11,11,0,0,0,3.333.569,1.442,1.442,0,0,1,.223.016.345.345,0,0,1,.3.338c0,.023,0,.047,0,.07,0,1.559,0,3.118,0,4.677a6.221,6.221,0,0,1-1.5,4.046,9.8,9.8,0,0,1-4.423,2.923,1.572,1.572,0,0,1-1.117-.023,10.079,10.079,0,0,1-3.953-2.432,6.464,6.464,0,0,1-1.818-3.445,6.027,6.027,0,0,1-.095-1c-.01-1.582,0-3.165,0-4.747,0-.275.129-.4.411-.42.368-.02.737-.025,1.1-.066a9.6,9.6,0,0,0,3.446-.975,3.7,3.7,0,0,0,1.2-.947,1.01,1.01,0,0,1,.2-.15Zm-5.853,2.874c0,.028,0,.056,0,.083,0,1.48,0,2.96.005,4.439a4.306,4.306,0,0,0,.063.682,5.817,5.817,0,0,0,1.63,3.154,9.265,9.265,0,0,0,3.88,2.328.431.431,0,0,0,.309,0c.411-.163.833-.3,1.234-.484a8.169,8.169,0,0,0,3.165-2.451,5.424,5.424,0,0,0,1.172-3.272c.018-1.466.006-2.932.006-4.4a.746.746,0,0,0-.012-.094c-.026,0-.045-.006-.063-.007a12.134,12.134,0,0,1-2.874-.475,7.261,7.261,0,0,1-2.395-1.142c-.135-.1-.262-.219-.378-.317A9.6,9.6,0,0,1,1515.347,395.93Z" transform="translate(-1514.618 -393.056)" fill="#fff"/>
      <path id="Path_6" data-name="Path 6" d="M1671.513,548.288h.3a.373.373,0,0,1,.418.412c0,.219,0,.439,0,.658q0,1.029,0,2.058c0,.341-.123.465-.464.465h-3.388c-.336,0-.457-.122-.457-.456q0-1.344,0-2.689c0-.321.13-.449.45-.45h.265c0-.254,0-.5,0-.737a1.438,1.438,0,0,1,2.875-.022C1671.52,547.775,1671.513,548.022,1671.513,548.288Zm-2.864,2.865c.039,0,.062.009.084.009.886,0,1.773,0,2.659,0,.108,0,.119-.047.119-.135,0-.63,0-1.26,0-1.89,0-.04-.006-.08-.008-.118h-2.852Zm2.141-2.87c0-.223,0-.432,0-.641a1.336,1.336,0,0,0,0-.14.726.726,0,0,0-.683-.643.679.679,0,0,0-.713.546,6.512,6.512,0,0,0-.008.878Z" transform="translate(-1663.619 -541.842)" fill="#fff"/>
    </g>
  </g>
</svg>
