<svg xmlns="http://www.w3.org/2000/svg" width="15.54" height="15.534" viewBox="0 0 15.54 15.534">
  <g id="e4i8tp.tif" transform="translate(-295.712 -205.318)">
    <g id="Group_1" data-name="Group 1" transform="translate(295.712 205.318)">
      <path id="Path_1" data-name="Path 1" d="M311.252,220v.145c-.01.015-.025.029-.028.045a.75.75,0,0,1-.554.631.781.781,0,0,1-.822-.247c-.355-.364-.717-.721-1.076-1.081l-1.051-1.052a7.384,7.384,0,1,1-.218-11.646,7.156,7.156,0,0,1,2.826,4.561,7.292,7.292,0,0,1-1.5,5.972c.658.663,1.307,1.323,1.964,1.975A1.416,1.416,0,0,1,311.252,220Zm-8.159-13.1a5.805,5.805,0,1,0,5.8,5.858A5.807,5.807,0,0,0,303.093,206.9Z" transform="translate(-295.712 -205.318)" fill="#fff"/>
    </g>
  </g>
</svg>
