<svg id="Layer_1" data-name="Layer 1" xmlns="http://www.w3.org/2000/svg" viewBox="0 0 14.3 14.3"><defs><style>.cls-1{fill:#fff;}</style></defs><g id="f8nOsP.tif"><g id="Group_9" data-name="Group 9"><path id="Path_7" data-name="Path 7" class="cls-1" d="M7.64,0,8.4.1a7,7,0,0,1,3.8,2A7.14,7.14,0,0,1,2.8,12.81,7.05,7.05,0,0,1,.11,8.48c0-.23-.06-.47-.1-.7a.59.59,0,0,0,0-.13v-1c0-.05,0-.1,0-.14,0-.24.06-.48.1-.72A7.19,7.19,0,0,1,5.87.11L6.63,0Zm6,7.16a6.48,6.48,0,1,0-6.49,6.47,6.49,6.49,0,0,0,6.49-6.47Z"/></g></g><g id="RozPqd.tif"><path class="cls-1" d="M6.79,2h.67l.09,0a4.89,4.89,0,0,1,1.51.35,5.08,5.08,0,0,1,3.15,3.86c0,.2.07.41.1.61v.67c0,.24-.07.48-.12.72A5.17,5.17,0,1,1,6.07,2.09Zm.35,3.67-1.32.09c-.06,0-.08,0-.09.09a12.94,12.94,0,0,0,0,2.64c0,.06,0,.08.1.08a11.48,11.48,0,0,0,2.62,0c.07,0,.09,0,.1-.09a12.84,12.84,0,0,0,0-2.63c0-.07,0-.09-.11-.09ZM9.28,8.41a4.74,4.74,0,0,0,1.83-.67,1.78,1.78,0,0,0,.35-.32.39.39,0,0,0,0-.55,1.8,1.8,0,0,0-.39-.34A4,4,0,0,0,9.79,6l-.51-.12A11.35,11.35,0,0,1,9.28,8.41ZM8.4,5s0,0,0,0a5.9,5.9,0,0,0-.48-1.49,1.79,1.79,0,0,0-.49-.63.4.4,0,0,0-.58,0,1.91,1.91,0,0,0-.33.37,4.67,4.67,0,0,0-.6,1.55,1.69,1.69,0,0,0,0,.24A11.89,11.89,0,0,1,8.4,5ZM5.87,9.29A5.24,5.24,0,0,0,6.48,11a2.69,2.69,0,0,0,.3.37.46.46,0,0,0,.72,0,1.3,1.3,0,0,0,.19-.22A3.59,3.59,0,0,0,8.24,10c.07-.22.12-.44.18-.68A12.08,12.08,0,0,1,5.87,9.29ZM5,5.89H5a5.43,5.43,0,0,0-1.56.53,1.72,1.72,0,0,0-.57.43.44.44,0,0,0,0,.61,1.6,1.6,0,0,0,.27.25,4.18,4.18,0,0,0,1.46.62l.43.1A11.89,11.89,0,0,1,5,5.89Zm.8-3A4.42,4.42,0,0,0,4,4,4.31,4.31,0,0,0,2.93,5.83,6.94,6.94,0,0,1,5,5.11s.06-.05.07-.08c.07-.28.11-.57.2-.85S5.63,3.35,5.79,2.93Zm2.66,0A6.68,6.68,0,0,1,9.17,5a.18.18,0,0,0,.09.08,6.78,6.78,0,0,1,1.52.44l.57.26A4.33,4.33,0,0,0,8.45,2.93ZM2.93,8.5A4.42,4.42,0,0,0,4,10.28a4.26,4.26,0,0,0,1.81,1.07,6.55,6.55,0,0,1-.71-2.09S5.06,9.18,5,9.18c-.27-.07-.56-.11-.82-.2C3.76,8.84,3.34,8.66,2.93,8.5Zm8.42,0,0,0a6.86,6.86,0,0,1-2.06.69s-.07.05-.08.08a7.54,7.54,0,0,1-.21.85c-.14.43-.31.84-.47,1.24A4.42,4.42,0,0,0,11.35,8.47Z"/></g></svg>